<svg xmlns="http://www.w3.org/2000/svg" viewBox="0 0 1200 630" role="img" aria-label="Football Manager Chile preview">
  <rect width="1200" height="630" fill="#eef2ea"/>
  <rect x="52" y="52" width="1096" height="526" rx="28" fill="#0f7a5a"/>
  <path d="M92 112h1016v406H92z" fill="#f4f8f1"/>
  <path d="M600 112v406M92 315h1016" stroke="#0f7a5a" stroke-width="8" opacity=".5"/>
  <circle cx="600" cy="315" r="88" fill="none" stroke="#0f7a5a" stroke-width="8" opacity=".55"/>
  <rect x="92" y="224" width="118" height="182" fill="none" stroke="#0f7a5a" stroke-width="8" opacity=".45"/>
  <rect x="990" y="224" width="118" height="182" fill="none" stroke="#0f7a5a" stroke-width="8" opacity=".45"/>
  <text x="120" y="238" fill="#111" font-family="Arial, sans-serif" font-size="78" font-weight="800">Football Manager Chile</text>
  <text x="122" y="318" fill="#23443a" font-family="Arial, sans-serif" font-size="36" font-weight="600">Liga chilena, mercado, carrera y partidos en vivo</text>
  <g transform="translate(120 382)">
    <rect width="246" height="78" rx="12" fill="#d71920"/>
    <text x="123" y="51" text-anchor="middle" fill="#fff" font-family="Arial, sans-serif" font-size="30" font-weight="800">Jugar gratis</text>
  </g>
  <g transform="translate(878 376)">
    <circle cx="74" cy="74" r="74" fill="#111"/>
    <path d="M48 28h52l26 37-20 55H42L22 65z" fill="#fff"/>
    <path d="M48 28l-6 92M100 28l6 92M22 65h104" stroke="#111" stroke-width="7"/>
  </g>
</svg>
